inDegrees=no
num_controls=7
num_derivatives=13
num_iterations=100
num_multipliers=7
num_parameters=0
num_slacks=7
num_states=26
objective=0.383532
objective_accelerations=0.032876
objective_balance=0.004985
objective_effort=0.065950
objective_height=0.275129
objective_ligament=0.004592
solver_duration=1163.309103
status=Solve_Succeeded
success=true
DataType=double
version=3
OpenSimVersion=4.5
endheader
time	/jointset/ground_pelvis/pelvis_tilt/value	/jointset/ground_pelvis/pelvis_tx/value	/jointset/ground_pelvis/pelvis_ty/value	/jointset/hip_r/hip_flexion_r/value	/jointset/hip_r/hip_adduction_r/value	/jointset/hip_r/hip_rotation_r/value	/jointset/back/lumbar_extension/value	/jointset/patellofemoral_r/patellar_flexion_r/value	/jointset/knee_r/knee_flexion_r/value	/jointset/knee_r/knee_adduction_r/value	/jointset/knee_r/knee_rotation_r/value	/jointset/ankle_r/ankle_angle_r/value	/jointset/subtalar_r/subtalar_angle_r/value	/jointset/ground_pelvis/pelvis_tilt/speed	/jointset/ground_pelvis/pelvis_tx/speed	/jointset/ground_pelvis/pelvis_ty/speed	/jointset/hip_r/hip_flexion_r/speed	/jointset/hip_r/hip_adduction_r/speed	/jointset/hip_r/hip_rotation_r/speed	/jointset/back/lumbar_extension/speed	/jointset/patellofemoral_r/patellar_flexion_r/speed	/jointset/knee_r/knee_flexion_r/speed	/jointset/knee_r/knee_adduction_r/speed	/jointset/knee_r/knee_rotation_r/speed	/jointset/ankle_r/ankle_angle_r/speed	/jointset/subtalar_r/subtalar_angle_r/speed	/forceset/tau_hip_flexion_r	/forceset/tau_hip_adduction_r	/forceset/tau_hip_rotation_r	/forceset/tau_knee_flexion_r	/forceset/tau_ankle_angle_r	/forceset/tau_subtalar_angle_r	/forceset/tau_lumbar_extension	lambda_cid13_p0	lambda_cid14_p0	lambda_cid14_p1	lambda_cid14_p2	lambda_cid14_p3	lambda_cid14_p4	lambda_cid14_p5	/jointset/ground_pelvis/pelvis_tilt/accel	/jointset/ground_pelvis/pelvis_tx/accel	/jointset/ground_pelvis/pelvis_ty/accel	/jointset/hip_r/hip_flexion_r/accel	/jointset/hip_r/hip_adduction_r/accel	/jointset/hip_r/hip_rotation_r/accel	/jointset/back/lumbar_extension/accel	/jointset/patellofemoral_r/patellar_flexion_r/accel	/jointset/knee_r/knee_flexion_r/accel	/jointset/knee_r/knee_adduction_r/accel	/jointset/knee_r/knee_rotation_r/accel	/jointset/ankle_r/ankle_angle_r/accel	/jointset/subtalar_r/subtalar_angle_r/accel	gamma_cid13_p0	gamma_cid14_p0	gamma_cid14_p1	gamma_cid14_p2	gamma_cid14_p3	gamma_cid14_p4	gamma_cid14_p5
0	-0.006444242689659162	0.09623051300424694	0.9427239873528735	0.1762555222360518	-0.2321675024433984	-0.2611402620865536	-0.038598046466844	0.07317863873451896	0.07317863873451017	0.1745240175406118	0.1740533046276296	0.03247278518263602	-0.003474662948308057	0	0	0	0	0	0	0	0	0	0	0	0	0	0.2744429542761886	-0.1041798430039561	-0.036111746096557	-0.3531026851042763	0.2749902162179204	-0.178564641393775	-0.1928694878814533	-39.0646392949126	39.46349609788457	-60.44623238213571	-1.547956024629744	25.10633821353042	-617.7050657181268	14.1690062768039	-3.695158300664535	-4.747629775989718	-1.953183942372278	30.34619939121987	0.9155258679149622	9.00713149374976	-13.68615848659648	35.00614204181598	35.00614204180809	-11.25979418764493	0.8613224972275838	11.53689016517411	3.558198014484963	1.51411495727565e-06	8.258703617926011e-07	-1.082182086759276e-05	5.652909180544531e-06	4.685787518393495e-07	3.480841782013315e-06	-7.306344934007697e-06
0.01	-0.006605241153015945	0.09599646283651304	0.9426304891028997	0.1777143034138993	-0.2321220341547575	-0.2606657690737469	-0.03929488470744954	0.07487385635905473	0.07487385635904467	0.1739734490200297	0.174057547643563	0.03303094104856612	-0.003301767971224238	-0.03207213945678389	-0.04655700346432599	-0.01871916792020679	0.289441111697943	0.008734796856098841	0.09430780002225694	-0.1382498674923157	0.3359315073002802	0.3359315073001901	-0.1084006874093377	0.0004119434009510495	0.1102706261736538	0.03389799023284006	0.2627227110848294	-0.1423489497904717	-0.03311923563759889	-0.3408980833930133	0.249422099752008	-0.1358150113399543	-0.1828895873461795	-39.12101214638212	32.86786077759006	-43.27092705914107	-4.01661953529769	28.0760684908444	-618.2270227022392	47.32070080003615	-2.944111367896624	-4.571687404089642	-1.83351473730043	27.89584694456349	0.7978750539916257	9.555204900469564	-13.72673378586505	32.41954961008025	32.41954961007001	-10.37432353141642	-0.4330114738088107	10.56821937598101	3.202408744405096	1.84650074112701e-06	7.960367164037417e-07	-1.322591125504809e-05	5.146971551731114e-06	8.590270544792869e-07	1.946207022716591e-06	-7.370755739355601e-06
0.02	-0.00708313493089586	0.09530445227964794	0.9423493528696326	0.1819980516858133	-0.232000134205647	-0.2592656779319171	-0.04134068820404482	0.07983496796379094	0.07983496796378819	0.1723900501225503	0.1740530817464024	0.03465101728273504	-0.00281053124846755	-0.06337906290197558	-0.09159207782624423	-0.03752759665868165	0.5649934188151594	0.01528633209356671	0.1851196258047577	-0.2697930511972288	0.653178796038411	0.6531787960382042	-0.2065660753722066	-0.001741782611608241	0.2123840736481054	0.06366834913454139	0.2510024678934801	-0.180518056576983	-0.03012672517873136	-0.3286934816817191	0.2238539832861068	-0.09306538128612397	-0.1729096868109083	-39.28366002481302	26.65035588965489	-26.08572023917793	-6.422483289358952	30.64605478153214	-612.639820203077	79.70527752046685	-3.542115098345896	-4.443243955508366	-1.971036106025889	27.5684384750746	0.4788735441887534	8.307936645798518	-12.34482172911587	31.26929832938618	31.2692983293729	-9.212734298351149	0.3481886145255233	9.905454425333474	2.732671748257153	2.178886524978371e-06	7.662030710148824e-07	-1.563000164250341e-05	4.641033922917698e-06	1.249475357119224e-06	4.115722634198665e-07	-7.435166544703504e-06
0.03	-0.00787516963703066	0.09417217157233897	0.9418765533038724	0.1889790116434741	-0.2318198477523533	-0.256989178339455	-0.0446591053115213	0.08789128672247576	0.08789128672247082	0.1698685452131147	0.1740279091626226	0.03726154265905516	-0.002035379909488197	-0.09477766803417978	-0.1343375885106436	-0.05725165496960349	0.8289475511876605	0.0206975141127863	0.2689956343256779	-0.3924793792647416	0.9558584834929682	0.9558584834927814	-0.2965397415322488	-0.003260308073445653	0.3091420036691584	0.09119677802842902	0.2396365595412688	-0.1749710565684885	-0.02831178147226268	-0.3259478652469891	0.2282640272485811	-0.0948816257410086	-0.1629372716759963	-39.54032667164505	28.77984139348243	-26.67796187601695	-6.126703978882692	25.38579177758867	-602.8167195049829	76.05406067743418	-2.901092746230457	-4.110981884064708	-2.005915351143579	25.47134475383105	0.5595732241443196	8.250927328995163	-12.01888969025405	29.43289600208077	29.43289600209266	-8.712421984022475	-0.3956198523831237	9.474434681250854	2.736230568375807	2.168766284596943e-06	8.702665164001492e-07	-1.530344516986744e-05	6.371346427598558e-06	1.177226416812253e-06	1.127892373201176e-06	-8.977865295654435e-06
